<svg xmlns="http://www.w3.org/2000/svg" width="220" height="36" viewBox="0 0 220 36" fill="none">
  <defs>
    <linearGradient id="iconGrad" x1="0%" y1="0%" x2="100%" y2="100%">
      <stop offset="0%" stop-color="#34d399"/>
      <stop offset="100%" stop-color="#10b981"/>
    </linearGradient>
  </defs>
  <!-- Pill background -->
  <rect width="220" height="36" rx="18" fill="#f5f5f7"/>
  <rect width="220" height="36" rx="18" stroke="#e0e0e6" stroke-width="1" fill="none"/>
  <!-- PackagePlus icon — box part -->
  <g transform="translate(8, 4) scale(1.1667)"
     stroke="url(#iconGrad)" stroke-width="1.8" fill="none"
     stroke-linecap="round" stroke-linejoin="round">
    <path d="M21 10V8a2 2 0 0 0-1-1.73l-7-4a2 2 0 0 0-2 0l-7 4A2 2 0 0 0 3 8v8a2 2 0 0 0 1 1.73l7 4a2 2 0 0 0 2 0l2-1.14"/>
    <path d="m7.5 4.27 9 5.15"/>
    <polyline points="3.29 7 12 12 20.71 7"/>
    <line x1="12" x2="12" y1="22" y2="12"/>
  </g>
  <!-- Plus sign — dark and bolder so it pops -->
  <g transform="translate(8, 4) scale(1.1667)"
     stroke="#1a1a2e" stroke-width="2.2" fill="none"
     stroke-linecap="round" stroke-linejoin="round">
    <path d="M16 16h6"/>
    <path d="M19 13v6"/>
  </g>
  <!-- "Powered by" text -->
  <text x="40" y="16" fill="#888899" font-family="-apple-system, BlinkMacSystemFont, 'Segoe UI', sans-serif" font-size="10" font-weight="400">Powered by</text>
  <!-- "builderpack.ai" text -->
  <text x="40" y="28" fill="#1a1a2e" font-family="-apple-system, BlinkMacSystemFont, 'Segoe UI', sans-serif" font-size="12" font-weight="600">builderpack.ai</text>
</svg>
